<?xml version="1.0" encoding="UTF-8" standalone="no"?>
<!-- Created with Inkscape (http://www.inkscape.org/) -->

<svg
   xmlns:dc="http://purl.org/dc/elements/1.1/"
   xmlns:cc="http://creativecommons.org/ns#"
   xmlns:rdf="http://www.w3.org/1999/02/22-rdf-syntax-ns#"
   xmlns:svg="http://www.w3.org/2000/svg"
   xmlns="http://www.w3.org/2000/svg"
   xmlns:sodipodi="http://sodipodi.sourceforge.net/DTD/sodipodi-0.dtd"
   xmlns:inkscape="http://www.inkscape.org/namespaces/inkscape"
   width="106mm"
   height="121mm"
   viewBox="0 0 375.59057 428.74022"
   id="svg2"
   version="1.1"
   inkscape:version="0.91 r13725"
   sodipodi:docname="connection.svg">
  <defs
     id="defs4" />
  <sodipodi:namedview
     id="base"
     pagecolor="#ffffff"
     bordercolor="#666666"
     borderopacity="1.0"
     inkscape:pageopacity="0.0"
     inkscape:pageshadow="2"
     inkscape:zoom="0.7"
     inkscape:cx="424.35709"
     inkscape:cy="524.95485"
     inkscape:document-units="px"
     inkscape:current-layer="layer1"
     showgrid="false"
     inkscape:window-width="1920"
     inkscape:window-height="1017"
     inkscape:window-x="1592"
     inkscape:window-y="-8"
     inkscape:window-maximized="1" />
  <metadata
     id="metadata7">
    <rdf:RDF>
      <cc:Work
         rdf:about="">
        <dc:format>image/svg+xml</dc:format>
        <dc:type
           rdf:resource="http://purl.org/dc/dcmitype/StillImage" />
        <dc:title></dc:title>
      </cc:Work>
    </rdf:RDF>
  </metadata>
  <g
     inkscape:label="Layer 1"
     inkscape:groupmode="layer"
     id="layer1"
     transform="translate(0,-623.62207)">
    <g
       id="g4221"
       transform="matrix(0.9923635,0,0,0.9923635,-6.7829591,615.79233)">
      <g
         transform="matrix(5.9558026,0,0,5.9558026,1.2593485,28.567553)"
         id="g3377">
        <g
           id="g3337">
          <path
             inkscape:connector-curvature="0"
             d="m 62.052,0 -9,0 0,9 2.695,0 c 0.073,1.716 0.09,9.353 -4.937,14.856 -3.647,3.994 -9.188,6.019 -16.465,6.019 -24.391,0 -27.188,23.486 -27.469,27 l -3.053,0 0,9 9,0 0,-9 -2.945,0 c 0.283,-3.704 2.82,-24 24.467,-24 8.155,0 14.44,-2.354 18.68,-6.996 C 58.714,19.65 58.841,11.347 58.751,9 l 3.301,0 0,-9 z m -50.226,64.875 -7,0 0,-7 7,0 0,7 z M 61.052,8 l -7,0 0,-7 7,0 0,7 z"
             id="path3339" />
        </g>
        <g
           id="g3341" />
        <g
           id="g3343" />
        <g
           id="g3345" />
        <g
           id="g3347" />
        <g
           id="g3349" />
        <g
           id="g3351" />
        <g
           id="g3353" />
        <g
           id="g3355" />
        <g
           id="g3357" />
        <g
           id="g3359" />
        <g
           id="g3361" />
        <g
           id="g3363" />
        <g
           id="g3365" />
        <g
           id="g3367" />
        <g
           id="g3369" />
      </g>
      <circle
         r="42.142857"
         cy="394.50507"
         cx="51.857151"
         id="path4204"
         style="fill:#000000;stroke:none" />
      <circle
         r="42.142857"
         cy="52.362225"
         cx="341.71429"
         id="path4204-0"
         style="fill:#000000;stroke:none" />
    </g>
  </g>
</svg>
